<svg width="70" height="70" viewBox="0 0 70 70" fill="none" xmlns="http://www.w3.org/2000/svg">
<rect width="70" height="70" rx="8" fill="#155E75"/>
<path d="M43.9043 43.797H39.8721L46.0159 26H50.8649L57 43.797H52.9679L48.5099 30.0669H48.3709L43.9043 43.797ZM43.6523 36.8016H53.1764V39.7388H43.6523V36.8016Z" fill="white"/>
<path d="M31.734 43.797V30.4493H35.323V32.7782H35.462C35.7053 31.9497 36.1137 31.3241 36.6873 30.9011C37.2608 30.4724 37.9212 30.2581 38.6686 30.2581C38.854 30.2581 39.0538 30.2697 39.2682 30.2928C39.4825 30.316 39.6708 30.3479 39.833 30.3884V33.6732C39.6592 33.6211 39.4188 33.5747 39.1118 33.5342C38.8047 33.4936 38.5238 33.4734 38.2688 33.4734C37.7243 33.4734 37.2376 33.5921 36.8089 33.8297C36.386 34.0614 36.05 34.3858 35.8009 34.8029C35.5576 35.22 35.4359 35.7009 35.4359 36.2455V43.797H31.734Z" fill="white"/>
<path d="M20.3089 43.797H14V26H20.361C22.1512 26 23.6922 26.3563 24.9841 27.0689C26.276 27.7756 27.2695 28.7924 27.9647 30.119C28.6657 31.4457 29.0162 33.0331 29.0162 34.8811C29.0162 36.735 28.6657 38.3281 27.9647 39.6606C27.2695 40.993 26.2702 42.0156 24.9667 42.7281C23.669 43.4407 22.1164 43.797 20.3089 43.797ZM17.7627 40.573H20.1525C21.2648 40.573 22.2004 40.3761 22.9593 39.9821C23.724 39.5824 24.2976 38.9654 24.6799 38.1312C25.0681 37.2911 25.2622 36.2078 25.2622 34.8811C25.2622 33.566 25.0681 32.4914 24.6799 31.6572C24.2976 30.8229 23.7269 30.2088 22.968 29.8149C22.2091 29.4209 21.2735 29.224 20.1612 29.224H17.7627V40.573Z" fill="white"/>
</svg>
