<svg width="132" height="28" viewBox="0 0 132 28" fill="none" xmlns="http://www.w3.org/2000/svg">
<path d="M3.85227 12H0.758523V3.27273H3.87784C4.75568 3.27273 5.51136 3.44744 6.14489 3.79688C6.77841 4.14347 7.26563 4.64205 7.60653 5.29261C7.95028 5.94318 8.12216 6.72159 8.12216 7.62784C8.12216 8.53693 7.95028 9.31818 7.60653 9.97159C7.26563 10.625 6.77557 11.1264 6.13636 11.4759C5.5 11.8253 4.73864 12 3.85227 12ZM2.60369 10.419H3.77557C4.32102 10.419 4.77983 10.3224 5.15199 10.1293C5.52699 9.93324 5.80824 9.63068 5.99574 9.22159C6.18608 8.80966 6.28125 8.27841 6.28125 7.62784C6.28125 6.98295 6.18608 6.45597 5.99574 6.04688C5.80824 5.63778 5.52841 5.33665 5.15625 5.14347C4.78409 4.95028 4.32528 4.85369 3.77983 4.85369H2.60369V10.419ZM17.5089 7.63636C17.5089 8.58807 17.3285 9.39773 16.9677 10.0653C16.6097 10.733 16.1211 11.2429 15.5018 11.5952C14.8853 11.9446 14.1921 12.1193 13.4222 12.1193C12.6467 12.1193 11.9506 11.9432 11.3342 11.5909C10.7177 11.2386 10.2305 10.7287 9.87251 10.0611C9.51456 9.39347 9.33558 8.58523 9.33558 7.63636C9.33558 6.68466 9.51456 5.875 9.87251 5.20739C10.2305 4.53977 10.7177 4.03125 11.3342 3.68182C11.9506 3.32955 12.6467 3.15341 13.4222 3.15341C14.1921 3.15341 14.8853 3.32955 15.5018 3.68182C16.1211 4.03125 16.6097 4.53977 16.9677 5.20739C17.3285 5.875 17.5089 6.68466 17.5089 7.63636ZM15.6381 7.63636C15.6381 7.01989 15.5458 6.5 15.3612 6.0767C15.1793 5.65341 14.9222 5.33239 14.5898 5.11364C14.2575 4.89489 13.8683 4.78551 13.4222 4.78551C12.9762 4.78551 12.587 4.89489 12.2546 5.11364C11.9222 5.33239 11.6637 5.65341 11.479 6.0767C11.2972 6.5 11.2063 7.01989 11.2063 7.63636C11.2063 8.25284 11.2972 8.77273 11.479 9.19602C11.6637 9.61932 11.9222 9.94034 12.2546 10.1591C12.587 10.3778 12.9762 10.4872 13.4222 10.4872C13.8683 10.4872 14.2575 10.3778 14.5898 10.1591C14.9222 9.94034 15.1793 9.61932 15.3612 9.19602C15.5458 8.77273 15.6381 8.25284 15.6381 7.63636ZM26.576 6.32812H24.7095C24.6754 6.08665 24.6058 5.87216 24.5007 5.68466C24.3956 5.49432 24.2607 5.33239 24.0959 5.19886C23.9311 5.06534 23.7408 4.96307 23.5249 4.89205C23.3118 4.82102 23.0803 4.78551 22.8303 4.78551C22.3786 4.78551 21.9851 4.89773 21.6499 5.12216C21.3146 5.34375 21.0547 5.66761 20.87 6.09375C20.6854 6.51705 20.593 7.03125 20.593 7.63636C20.593 8.25852 20.6854 8.78125 20.87 9.20455C21.0575 9.62784 21.3189 9.94744 21.6541 10.1634C21.9893 10.3793 22.3771 10.4872 22.8175 10.4872C23.0646 10.4872 23.2933 10.4545 23.5036 10.3892C23.7166 10.3239 23.9055 10.2287 24.0703 10.1037C24.2351 9.97585 24.3714 9.82102 24.4794 9.6392C24.5902 9.45739 24.6669 9.25 24.7095 9.01705L26.576 9.02557C26.5277 9.42614 26.407 9.8125 26.2138 10.1847C26.0234 10.554 25.7663 10.8849 25.4425 11.1776C25.1214 11.4673 24.7379 11.6974 24.2919 11.8679C23.8487 12.0355 23.3473 12.1193 22.7876 12.1193C22.0092 12.1193 21.3132 11.9432 20.6996 11.5909C20.0888 11.2386 19.6058 10.7287 19.2507 10.0611C18.8984 9.39347 18.7223 8.58523 18.7223 7.63636C18.7223 6.68466 18.9013 5.875 19.2592 5.20739C19.6172 4.53977 20.103 4.03125 20.7166 3.68182C21.3303 3.32955 22.0206 3.15341 22.7876 3.15341C23.2933 3.15341 23.7621 3.22443 24.1939 3.36648C24.6286 3.50852 25.0135 3.71591 25.3487 3.98864C25.6839 4.25852 25.9567 4.58949 26.1669 4.98153C26.38 5.37358 26.5163 5.82244 26.576 6.32812ZM27.5668 4.79403V3.27273H34.7344V4.79403H32.0625V12H30.2386V4.79403H27.5668ZM43.5362 7.63636C43.5362 8.58807 43.3558 9.39773 42.995 10.0653C42.6371 10.733 42.1484 11.2429 41.5291 11.5952C40.9126 11.9446 40.2195 12.1193 39.4496 12.1193C38.674 12.1193 37.978 11.9432 37.3615 11.5909C36.745 11.2386 36.2578 10.7287 35.8999 10.0611C35.5419 9.39347 35.3629 8.58523 35.3629 7.63636C35.3629 6.68466 35.5419 5.875 35.8999 5.20739C36.2578 4.53977 36.745 4.03125 37.3615 3.68182C37.978 3.32955 38.674 3.15341 39.4496 3.15341C40.2195 3.15341 40.9126 3.32955 41.5291 3.68182C42.1484 4.03125 42.6371 4.53977 42.995 5.20739C43.3558 5.875 43.5362 6.68466 43.5362 7.63636ZM41.6655 7.63636C41.6655 7.01989 41.5732 6.5 41.3885 6.0767C41.2067 5.65341 40.9496 5.33239 40.6172 5.11364C40.2848 4.89489 39.8956 4.78551 39.4496 4.78551C39.0036 4.78551 38.6143 4.89489 38.282 5.11364C37.9496 5.33239 37.6911 5.65341 37.5064 6.0767C37.3246 6.5 37.2337 7.01989 37.2337 7.63636C37.2337 8.25284 37.3246 8.77273 37.5064 9.19602C37.6911 9.61932 37.9496 9.94034 38.282 10.1591C38.6143 10.3778 39.0036 10.4872 39.4496 10.4872C39.8956 10.4872 40.2848 10.3778 40.6172 10.1591C40.9496 9.94034 41.2067 9.61932 41.3885 9.19602C41.5732 8.77273 41.6655 8.25284 41.6655 7.63636ZM44.9031 12V3.27273H48.3462C49.0053 3.27273 49.5678 3.39062 50.0337 3.62642C50.5025 3.85937 50.859 4.19034 51.1033 4.61932C51.3505 5.04545 51.4741 5.54687 51.4741 6.12358C51.4741 6.70312 51.3491 7.2017 51.0991 7.61932C50.8491 8.03409 50.4869 8.35227 50.0124 8.57386C49.5408 8.79545 48.9698 8.90625 48.2994 8.90625H45.994V7.4233H48.0011C48.3533 7.4233 48.646 7.375 48.8789 7.27841C49.1119 7.18182 49.2852 7.03693 49.3988 6.84375C49.5153 6.65057 49.5735 6.41051 49.5735 6.12358C49.5735 5.83381 49.5153 5.58949 49.3988 5.39062C49.2852 5.19176 49.1104 5.04119 48.8746 4.93892C48.6417 4.83381 48.3477 4.78125 47.9925 4.78125H46.7482V12H44.9031ZM49.6161 8.02841L51.7852 12H49.7482L47.6261 8.02841H49.6161ZM57.0597 12H55.0824L58.0952 3.27273H60.473L63.4815 12H61.5043L59.3182 5.26705H59.25L57.0597 12ZM56.9361 8.5696H61.6065V10.0099H56.9361V8.5696ZM64.532 12V3.27273H66.3771V10.4787H70.1186V12H64.532ZM71.3406 3.27273H73.6161L76.0195 9.13636H76.1218L78.5252 3.27273H80.8008V12H79.011V6.3196H78.9386L76.68 11.9574H75.4613L73.2028 6.2983H73.1303V12H71.3406V3.27273ZM82.321 12V3.27273H88.2017V4.79403H84.1662V6.87358H87.8991V8.39489H84.1662V10.4787H88.2188V12H82.321ZM96.9684 3.27273V12H95.3746L91.5778 6.5071H91.5138V12H89.6687V3.27273H91.288L95.055 8.76136H95.1317V3.27273H96.9684ZM101.587 12H98.4929V3.27273H101.612C102.49 3.27273 103.246 3.44744 103.879 3.79688C104.513 4.14347 105 4.64205 105.341 5.29261C105.685 5.94318 105.857 6.72159 105.857 7.62784C105.857 8.53693 105.685 9.31818 105.341 9.97159C105 10.625 104.51 11.1264 103.871 11.4759C103.234 11.8253 102.473 12 101.587 12ZM100.338 10.419H101.51C102.055 10.419 102.514 10.3224 102.886 10.1293C103.261 9.93324 103.543 9.63068 103.73 9.22159C103.92 8.80966 104.016 8.27841 104.016 7.62784C104.016 6.98295 103.92 6.45597 103.73 6.04688C103.543 5.63778 103.263 5.33665 102.891 5.14347C102.518 4.95028 102.06 4.85369 101.514 4.85369H100.338V10.419ZM107.223 12V3.27273H110.667C111.326 3.27273 111.888 3.39062 112.354 3.62642C112.823 3.85937 113.179 4.19034 113.424 4.61932C113.671 5.04545 113.794 5.54687 113.794 6.12358C113.794 6.70312 113.669 7.2017 113.419 7.61932C113.169 8.03409 112.807 8.35227 112.333 8.57386C111.861 8.79545 111.29 8.90625 110.62 8.90625H108.314V7.4233H110.321C110.674 7.4233 110.966 7.375 111.199 7.27841C111.432 7.18182 111.605 7.03693 111.719 6.84375C111.836 6.65057 111.894 6.41051 111.894 6.12358C111.894 5.83381 111.836 5.58949 111.719 5.39062C111.605 5.19176 111.431 5.04119 111.195 4.93892C110.962 4.83381 110.668 4.78125 110.313 4.78125H109.069V12H107.223ZM111.936 8.02841L114.105 12H112.069L109.946 8.02841H111.936ZM123.118 7.63636C123.118 8.58807 122.938 9.39773 122.577 10.0653C122.219 10.733 121.73 11.2429 121.111 11.5952C120.495 11.9446 119.801 12.1193 119.032 12.1193C118.256 12.1193 117.56 11.9432 116.944 11.5909C116.327 11.2386 115.84 10.7287 115.482 10.0611C115.124 9.39347 114.945 8.58523 114.945 7.63636C114.945 6.68466 115.124 5.875 115.482 5.20739C115.84 4.53977 116.327 4.03125 116.944 3.68182C117.56 3.32955 118.256 3.15341 119.032 3.15341C119.801 3.15341 120.495 3.32955 121.111 3.68182C121.73 4.03125 122.219 4.53977 122.577 5.20739C122.938 5.875 123.118 6.68466 123.118 7.63636ZM121.248 7.63636C121.248 7.01989 121.155 6.5 120.971 6.0767C120.789 5.65341 120.532 5.33239 120.199 5.11364C119.867 4.89489 119.478 4.78551 119.032 4.78551C118.586 4.78551 118.196 4.89489 117.864 5.11364C117.532 5.33239 117.273 5.65341 117.088 6.0767C116.907 6.5 116.816 7.01989 116.816 7.63636C116.816 8.25284 116.907 8.77273 117.088 9.19602C117.273 9.61932 117.532 9.94034 117.864 10.1591C118.196 10.3778 118.586 10.4872 119.032 10.4872C119.478 10.4872 119.867 10.3778 120.199 10.1591C120.532 9.94034 120.789 9.61932 120.971 9.19602C121.155 8.77273 121.248 8.25284 121.248 7.63636ZM129.219 5.78267C129.185 5.43892 129.039 5.17187 128.781 4.98153C128.522 4.79119 128.171 4.69602 127.728 4.69602C127.427 4.69602 127.173 4.73864 126.965 4.82386C126.758 4.90625 126.599 5.02131 126.488 5.16903C126.38 5.31676 126.326 5.48438 126.326 5.67188C126.32 5.82812 126.353 5.96449 126.424 6.08097C126.498 6.19744 126.599 6.2983 126.727 6.38352C126.854 6.46591 127.002 6.53835 127.17 6.60085C127.337 6.66051 127.516 6.71165 127.707 6.75426L128.491 6.94176C128.871 7.02699 129.221 7.14062 129.539 7.28267C129.857 7.42472 130.133 7.59943 130.366 7.80682C130.599 8.0142 130.779 8.25852 130.907 8.53977C131.038 8.82102 131.104 9.14347 131.107 9.5071C131.104 10.0412 130.968 10.5043 130.698 10.8963C130.431 11.2855 130.045 11.5881 129.539 11.804C129.036 12.017 128.43 12.1236 127.719 12.1236C127.015 12.1236 126.401 12.0156 125.879 11.7997C125.359 11.5838 124.952 11.2642 124.66 10.8409C124.37 10.4148 124.218 9.88778 124.204 9.25994H125.989C126.009 9.55256 126.093 9.79687 126.241 9.9929C126.391 10.1861 126.592 10.3324 126.842 10.4318C127.094 10.5284 127.38 10.5767 127.698 10.5767C128.011 10.5767 128.282 10.5312 128.512 10.4403C128.745 10.3494 128.925 10.223 129.053 10.0611C129.181 9.89915 129.245 9.71307 129.245 9.50284C129.245 9.30682 129.187 9.14205 129.07 9.00852C128.957 8.875 128.789 8.76136 128.567 8.66761C128.349 8.57386 128.08 8.48864 127.762 8.41193L126.812 8.1733C126.076 7.99432 125.495 7.71449 125.069 7.33381C124.643 6.95312 124.431 6.44034 124.434 5.79545C124.431 5.26705 124.572 4.8054 124.856 4.41051C125.143 4.01562 125.536 3.70739 126.036 3.4858C126.536 3.2642 127.104 3.15341 127.741 3.15341C128.388 3.15341 128.954 3.2642 129.437 3.4858C129.923 3.70739 130.3 4.01562 130.57 4.41051C130.84 4.8054 130.979 5.26278 130.988 5.78267H129.219Z" fill="#06B6D4"/>
<path d="M10.6392 26V20.1818H14.2472V20.9375H11.517V22.7102H13.9886V23.4631H11.517V26H10.6392ZM16.2045 20.1818V26H15.3267V20.1818H16.2045ZM20.6562 21.7102C20.6259 21.4413 20.5009 21.233 20.2812 21.0852C20.0616 20.9356 19.785 20.8608 19.4517 20.8608C19.2131 20.8608 19.0066 20.8987 18.8324 20.9744C18.6581 21.0483 18.5227 21.1506 18.4261 21.2812C18.3314 21.41 18.2841 21.5568 18.2841 21.7216C18.2841 21.8598 18.3163 21.9792 18.3807 22.0795C18.447 22.1799 18.5331 22.2642 18.6392 22.3324C18.7472 22.3987 18.8627 22.4545 18.9858 22.5C19.1089 22.5436 19.2273 22.5795 19.3409 22.608L19.9091 22.7557C20.0947 22.8011 20.285 22.8627 20.4801 22.9403C20.6752 23.018 20.8561 23.1203 21.0227 23.2472C21.1894 23.3741 21.3239 23.5312 21.4261 23.7188C21.5303 23.9062 21.5824 24.1307 21.5824 24.392C21.5824 24.7216 21.4972 25.0142 21.3267 25.2699C21.1581 25.5256 20.9129 25.7273 20.5909 25.875C20.2708 26.0227 19.8835 26.0966 19.429 26.0966C18.9934 26.0966 18.6165 26.0275 18.2983 25.8892C17.9801 25.7509 17.7311 25.5549 17.5511 25.3011C17.3712 25.0455 17.2718 24.7424 17.2528 24.392H18.1335C18.1506 24.6023 18.2188 24.7775 18.3381 24.9176C18.4593 25.0559 18.6136 25.1591 18.8011 25.2273C18.9905 25.2936 19.1979 25.3267 19.4233 25.3267C19.6714 25.3267 19.892 25.2879 20.0852 25.2102C20.2803 25.1307 20.4337 25.0208 20.5455 24.8807C20.6572 24.7386 20.7131 24.5729 20.7131 24.3835C20.7131 24.2112 20.6638 24.0701 20.5653 23.9602C20.4688 23.8504 20.3371 23.7595 20.1705 23.6875C20.0057 23.6155 19.8191 23.5521 19.6108 23.4972L18.9233 23.3097C18.4574 23.1828 18.0881 22.9962 17.8153 22.75C17.5445 22.5038 17.4091 22.178 17.4091 21.7727C17.4091 21.4375 17.5 21.1449 17.6818 20.8949C17.8636 20.6449 18.1098 20.4508 18.4205 20.3125C18.7311 20.1723 19.0814 20.1023 19.4716 20.1023C19.8655 20.1023 20.2131 20.1714 20.5142 20.3097C20.8172 20.4479 21.0559 20.6383 21.2301 20.8807C21.4044 21.1212 21.4953 21.3977 21.5028 21.7102H20.6562ZM23.5092 20.1818V26H22.6314V20.1818H23.5092ZM29.8416 23.0909C29.8416 23.7121 29.728 24.2462 29.5007 24.6932C29.2734 25.1383 28.9619 25.4811 28.5661 25.7216C28.1721 25.9602 27.7242 26.0795 27.2223 26.0795C26.7185 26.0795 26.2687 25.9602 25.8729 25.7216C25.4789 25.4811 25.1683 25.1373 24.9411 24.6903C24.7138 24.2434 24.6001 23.7102 24.6001 23.0909C24.6001 22.4697 24.7138 21.9366 24.9411 21.4915C25.1683 21.0445 25.4789 20.7017 25.8729 20.4631C26.2687 20.2225 26.7185 20.1023 27.2223 20.1023C27.7242 20.1023 28.1721 20.2225 28.5661 20.4631C28.9619 20.7017 29.2734 21.0445 29.5007 21.4915C29.728 21.9366 29.8416 22.4697 29.8416 23.0909ZM28.9723 23.0909C28.9723 22.6174 28.8956 22.2187 28.7422 21.8949C28.5907 21.5691 28.3823 21.3229 28.1172 21.1562C27.8539 20.9877 27.5556 20.9034 27.2223 20.9034C26.8871 20.9034 26.5878 20.9877 26.3246 21.1562C26.0613 21.3229 25.853 21.5691 25.6996 21.8949C25.5481 22.2187 25.4723 22.6174 25.4723 23.0909C25.4723 23.5644 25.5481 23.964 25.6996 24.2898C25.853 24.6136 26.0613 24.8598 26.3246 25.0284C26.5878 25.1951 26.8871 25.2784 27.2223 25.2784C27.5556 25.2784 27.8539 25.1951 28.1172 25.0284C28.3823 24.8598 28.5907 24.6136 28.7422 24.2898C28.8956 23.964 28.9723 23.5644 28.9723 23.0909ZM30.3991 20.9375V20.1818H34.902V20.9375H33.0866V26H32.2116V20.9375H30.3991ZM35.897 26V20.1818H39.5447V20.9375H36.7749V22.7102H39.3544V23.4631H36.7749V25.2443H39.5788V26H35.897ZM40.7173 26V20.1818H42.7912C43.242 20.1818 43.616 20.2595 43.9134 20.4148C44.2126 20.5701 44.4361 20.785 44.5838 21.0597C44.7315 21.3324 44.8054 21.6477 44.8054 22.0057C44.8054 22.3617 44.7306 22.6752 44.581 22.946C44.4332 23.215 44.2098 23.4242 43.9105 23.5739C43.6132 23.7235 43.2391 23.7983 42.7884 23.7983H41.2173V23.0426H42.7088C42.9929 23.0426 43.224 23.0019 43.402 22.9205C43.5819 22.839 43.7135 22.7206 43.7969 22.5653C43.8802 22.41 43.9219 22.2235 43.9219 22.0057C43.9219 21.786 43.8793 21.5956 43.794 21.4347C43.7107 21.2737 43.5791 21.1506 43.3991 21.0653C43.2211 20.9782 42.9872 20.9347 42.6974 20.9347H41.5952V26H40.7173ZM43.5895 23.375L45.027 26H44.027L42.6179 23.375H43.5895ZM46.3651 26H45.4332L47.527 20.1818H48.5412L50.6349 26H49.7031L48.0582 21.2386H48.0128L46.3651 26ZM46.5213 23.7216H49.544V24.4602H46.5213V23.7216ZM51.4751 26V20.1818H53.549C54.0017 20.1818 54.3767 20.2642 54.674 20.429C54.9714 20.5937 55.1939 20.8191 55.3416 21.1051C55.4893 21.3892 55.5632 21.7093 55.5632 22.0653C55.5632 22.4233 55.4884 22.7453 55.3388 23.0312C55.1911 23.3153 54.9676 23.5407 54.6683 23.7074C54.371 23.8722 53.9969 23.9545 53.5462 23.9545H52.12V23.2102H53.4666C53.7526 23.2102 53.9846 23.161 54.1626 23.0625C54.3407 22.9621 54.4714 22.8258 54.5547 22.6534C54.638 22.4811 54.6797 22.285 54.6797 22.0653C54.6797 21.8456 54.638 21.6506 54.5547 21.4801C54.4714 21.3097 54.3397 21.1761 54.1598 21.0795C53.9818 20.983 53.7469 20.9347 53.4553 20.9347H52.353V26H51.4751ZM57.4702 20.1818V26H56.5923V20.1818H57.4702ZM59.2401 26H58.3082L60.402 20.1818H61.4162L63.5099 26H62.5781L60.9332 21.2386H60.8878L59.2401 26ZM59.3963 23.7216H62.419V24.4602H59.3963V23.7216ZM66.4673 26V20.1818H68.5412C68.9938 20.1818 69.3688 20.2642 69.6662 20.429C69.9635 20.5937 70.1861 20.8191 70.3338 21.1051C70.4815 21.3892 70.5554 21.7093 70.5554 22.0653C70.5554 22.4233 70.4806 22.7453 70.331 23.0312C70.1832 23.3153 69.9598 23.5407 69.6605 23.7074C69.3632 23.8722 68.9891 23.9545 68.5384 23.9545H67.1122V23.2102H68.4588C68.7448 23.2102 68.9768 23.161 69.1548 23.0625C69.3329 22.9621 69.4635 22.8258 69.5469 22.6534C69.6302 22.4811 69.6719 22.285 69.6719 22.0653C69.6719 21.8456 69.6302 21.6506 69.5469 21.4801C69.4635 21.3097 69.3319 21.1761 69.152 21.0795C68.974 20.983 68.7391 20.9347 68.4474 20.9347H67.3452V26H66.4673ZM71.5845 26V20.1818H73.6584C74.1091 20.1818 74.4832 20.2595 74.7805 20.4148C75.0798 20.5701 75.3033 20.785 75.451 21.0597C75.5987 21.3324 75.6726 21.6477 75.6726 22.0057C75.6726 22.3617 75.5978 22.6752 75.4482 22.946C75.3004 23.215 75.0769 23.4242 74.7777 23.5739C74.4804 23.7235 74.1063 23.7983 73.6555 23.7983H72.0845V23.0426H73.576C73.8601 23.0426 74.0911 23.0019 74.2692 22.9205C74.4491 22.839 74.5807 22.7206 74.6641 22.5653C74.7474 22.41 74.7891 22.2235 74.7891 22.0057C74.7891 21.786 74.7464 21.5956 74.6612 21.4347C74.5779 21.2737 74.4463 21.1506 74.2663 21.0653C74.0883 20.9782 73.8544 20.9347 73.5646 20.9347H72.4624V26H71.5845ZM74.4567 23.375L75.8942 26H74.8942L73.4851 23.375H74.4567ZM81.7947 23.0909C81.7947 23.7121 81.6811 24.2462 81.4538 24.6932C81.2266 25.1383 80.915 25.4811 80.5192 25.7216C80.1252 25.9602 79.6773 26.0795 79.1754 26.0795C78.6716 26.0795 78.2218 25.9602 77.826 25.7216C77.4321 25.4811 77.1214 25.1373 76.8942 24.6903C76.6669 24.2434 76.5533 23.7102 76.5533 23.0909C76.5533 22.4697 76.6669 21.9366 76.8942 21.4915C77.1214 21.0445 77.4321 20.7017 77.826 20.4631C78.2218 20.2225 78.6716 20.1023 79.1754 20.1023C79.6773 20.1023 80.1252 20.2225 80.5192 20.4631C80.915 20.7017 81.2266 21.0445 81.4538 21.4915C81.6811 21.9366 81.7947 22.4697 81.7947 23.0909ZM80.9254 23.0909C80.9254 22.6174 80.8487 22.2187 80.6953 21.8949C80.5438 21.5691 80.3355 21.3229 80.0703 21.1562C79.8071 20.9877 79.5088 20.9034 79.1754 20.9034C78.8402 20.9034 78.541 20.9877 78.2777 21.1562C78.0144 21.3229 77.8061 21.5691 77.6527 21.8949C77.5012 22.2187 77.4254 22.6174 77.4254 23.0909C77.4254 23.5644 77.5012 23.964 77.6527 24.2898C77.8061 24.6136 78.0144 24.8598 78.2777 25.0284C78.541 25.1951 78.8402 25.2784 79.1754 25.2784C79.5088 25.2784 79.8071 25.1951 80.0703 25.0284C80.3355 24.8598 80.5438 24.6136 80.6953 24.2898C80.8487 23.964 80.9254 23.5644 80.9254 23.0909ZM82.8892 26V20.1818H86.4972V20.9375H83.767V22.7102H86.2386V23.4631H83.767V26H82.8892ZM87.5767 26V20.1818H91.2244V20.9375H88.4545V22.7102H91.0341V23.4631H88.4545V25.2443H91.2585V26H87.5767ZM95.5703 21.7102C95.54 21.4413 95.415 21.233 95.1953 21.0852C94.9756 20.9356 94.6991 20.8608 94.3658 20.8608C94.1271 20.8608 93.9207 20.8987 93.7464 20.9744C93.5722 21.0483 93.4368 21.1506 93.3402 21.2812C93.2455 21.41 93.1982 21.5568 93.1982 21.7216C93.1982 21.8598 93.2304 21.9792 93.2947 22.0795C93.361 22.1799 93.4472 22.2642 93.5533 22.3324C93.6612 22.3987 93.7768 22.4545 93.8999 22.5C94.023 22.5436 94.1413 22.5795 94.255 22.608L94.8232 22.7557C95.0088 22.8011 95.1991 22.8627 95.3942 22.9403C95.5893 23.018 95.7701 23.1203 95.9368 23.2472C96.1035 23.3741 96.2379 23.5312 96.3402 23.7188C96.4444 23.9062 96.4964 24.1307 96.4964 24.392C96.4964 24.7216 96.4112 25.0142 96.2408 25.2699C96.0722 25.5256 95.8269 25.7273 95.505 25.875C95.1849 26.0227 94.7976 26.0966 94.343 26.0966C93.9074 26.0966 93.5305 26.0275 93.2124 25.8892C92.8942 25.7509 92.6451 25.5549 92.4652 25.3011C92.2853 25.0455 92.1858 24.7424 92.1669 24.392H93.0476C93.0646 24.6023 93.1328 24.7775 93.2521 24.9176C93.3733 25.0559 93.5277 25.1591 93.7152 25.2273C93.9046 25.2936 94.112 25.3267 94.3374 25.3267C94.5855 25.3267 94.8061 25.2879 94.9993 25.2102C95.1944 25.1307 95.3478 25.0208 95.4595 24.8807C95.5713 24.7386 95.6271 24.5729 95.6271 24.3835C95.6271 24.2112 95.5779 24.0701 95.4794 23.9602C95.3828 23.8504 95.2512 23.7595 95.0845 23.6875C94.9197 23.6155 94.7332 23.5521 94.5249 23.4972L93.8374 23.3097C93.3714 23.1828 93.0021 22.9962 92.7294 22.75C92.4586 22.5038 92.3232 22.178 92.3232 21.7727C92.3232 21.4375 92.4141 21.1449 92.5959 20.8949C92.7777 20.6449 93.0239 20.4508 93.3345 20.3125C93.6451 20.1723 93.9955 20.1023 94.3857 20.1023C94.7796 20.1023 95.1271 20.1714 95.4283 20.3097C95.7313 20.4479 95.9699 20.6383 96.1442 20.8807C96.3184 21.1212 96.4093 21.3977 96.4169 21.7102H95.5703ZM98.4233 20.1818V26H97.5455V20.1818H98.4233ZM104.756 23.0909C104.756 23.7121 104.642 24.2462 104.415 24.6932C104.188 25.1383 103.876 25.4811 103.48 25.7216C103.086 25.9602 102.638 26.0795 102.136 26.0795C101.633 26.0795 101.183 25.9602 100.787 25.7216C100.393 25.4811 100.082 25.1373 99.8551 24.6903C99.6278 24.2434 99.5142 23.7102 99.5142 23.0909C99.5142 22.4697 99.6278 21.9366 99.8551 21.4915C100.082 21.0445 100.393 20.7017 100.787 20.4631C101.183 20.2225 101.633 20.1023 102.136 20.1023C102.638 20.1023 103.086 20.2225 103.48 20.4631C103.876 20.7017 104.188 21.0445 104.415 21.4915C104.642 21.9366 104.756 22.4697 104.756 23.0909ZM103.886 23.0909C103.886 22.6174 103.81 22.2187 103.656 21.8949C103.505 21.5691 103.296 21.3229 103.031 21.1562C102.768 20.9877 102.47 20.9034 102.136 20.9034C101.801 20.9034 101.502 20.9877 101.239 21.1562C100.975 21.3229 100.767 21.5691 100.614 21.8949C100.462 22.2187 100.386 22.6174 100.386 23.0909C100.386 23.5644 100.462 23.964 100.614 24.2898C100.767 24.6136 100.975 24.8598 101.239 25.0284C101.502 25.1951 101.801 25.2784 102.136 25.2784C102.47 25.2784 102.768 25.1951 103.031 25.0284C103.296 24.8598 103.505 24.6136 103.656 24.2898C103.81 23.964 103.886 23.5644 103.886 23.0909ZM110.546 20.1818V26H109.739L106.782 21.733H106.728V26H105.85V20.1818H106.663L109.623 24.4545H109.677V20.1818H110.546ZM112.318 26H111.386L113.48 20.1818H114.494L116.588 26H115.656L114.011 21.2386H113.966L112.318 26ZM112.474 23.7216H115.497V24.4602H112.474V23.7216ZM117.428 26V20.1818H118.306V25.2443H120.942V26H117.428Z" fill="#164E63"/>
</svg>
